<svg xmlns="http://www.w3.org/2000/svg" viewBox="0 0 26.25 26.25"><g data-name="Camada 2"><path d="M13.12 6.39a6.48 6.48 0 013.37.91A6.7 6.7 0 0119 9.76a6.74 6.74 0 010 6.73A6.8 6.8 0 0116.49 19a6.74 6.74 0 01-6.73 0 6.8 6.8 0 01-2.47-2.47 6.74 6.74 0 010-6.73 6.7 6.7 0 012.47-2.5 6.47 6.47 0 013.36-.91zm0 11.13a4.4 4.4 0 004.4-4.39 4.4 4.4 0 00-4.4-4.4 4.4 4.4 0 00-4.39 4.4 4.4 4.4 0 004.39 4.39zm8.62-11.43a1.61 1.61 0 00-1.58-1.58A1.56 1.56 0 0019 5a1.52 1.52 0 00-.47 1.11 1.6 1.6 0 001.59 1.59 1.42 1.42 0 001.08-.47 1.89 1.89 0 00.54-1.14zm4.45 1.59c0 1.09.06 2.91.06 5.45s0 4.36-.09 5.47a10.78 10.78 0 01-.5 2.9 6.84 6.84 0 01-4.16 4.16 10.78 10.78 0 01-2.9.5c-1.11.06-2.94.09-5.48.09s-4.36 0-5.47-.09a9.65 9.65 0 01-2.9-.55 6.23 6.23 0 01-2.55-1.56A6.67 6.67 0 01.59 21.5a10.78 10.78 0 01-.5-2.9C0 17.49 0 15.66 0 13.13s0-4.37.09-5.48a10.78 10.78 0 01.5-2.9A6.84 6.84 0 014.75.59a10.78 10.78 0 012.9-.5C8.76 0 10.59 0 13.12 0s4.37 0 5.48.09a10.78 10.78 0 012.9.5 6.84 6.84 0 014.16 4.16 11.64 11.64 0 01.53 2.93zm-2.81 13.18a12.58 12.58 0 00.47-3.16c0-.86.06-2.07.06-3.64v-1.87c0-1.6 0-2.81-.06-3.64a12 12 0 00-.47-3.16 4.24 4.24 0 00-2.52-2.52 12 12 0 00-3.16-.47c-.86 0-2.08-.06-3.64-.06h-1.87c-1.57 0-2.78 0-3.64.06a12.58 12.58 0 00-3.16.47 4.24 4.24 0 00-2.52 2.52 12 12 0 00-.47 3.16c0 .86-.06 2.08-.06 3.64v1.87c0 1.57 0 2.78.06 3.64a12.58 12.58 0 00.47 3.16 4.46 4.46 0 002.52 2.52 12.58 12.58 0 003.16.47c.86 0 2.07.06 3.64.06h1.87c1.6 0 2.81 0 3.64-.06a12 12 0 003.16-.47 4.46 4.46 0 002.52-2.52z" data-name="Camada 1"/></g></svg>