<svg xmlns="http://www.w3.org/2000/svg" viewBox="0 0 19 19"><g data-name="Camada 2"><path d="M17.24 16.74a1.86 1.86 0 000-2.75L15 11.78a1.82 1.82 0 00-1.36-.62 1.93 1.93 0 00-1.37.62L11 13.06c-.11-.07-.22-.11-.32-.17s-.28-.15-.41-.22a13.36 13.36 0 01-3.3-3A6.87 6.87 0 015.9 7.94L6.84 7l.34-.35a2 2 0 00.64-1.35 2 2 0 00-.64-1.39L6.09 2.8a3.19 3.19 0 01-.36-.38c-.24-.25-.49-.51-.75-.75a1.89 1.89 0 00-1.34-.59 2 2 0 00-1.37.59L.89 3.06A3 3 0 000 4.91a7.46 7.46 0 00.52 3A17.06 17.06 0 003.6 13a19 19 0 006.29 5 9.3 9.3 0 003.53 1h.26A3 3 0 0016 18a8 8 0 01.71-.72 3.71 3.71 0 00.53-.54zM16 16.51a9.81 9.81 0 00-.76.81 1.92 1.92 0 01-1.54.68h-.19a9.54 9.54 0 01-3.16-1 17.77 17.77 0 01-5.92-4.65 16.45 16.45 0 01-2.9-4.81A5.56 5.56 0 011.08 5a1.91 1.91 0 01.55-1.19L3 2.46a.88.88 0 01.62-.29.91.91 0 01.62.29c.25.24.46.47.72.73l.38.38 1.09 1.09a.94.94 0 01.32.64 1 1 0 01-.32.64l-.34.34-1 1a.84.84 0 00-.22.9 8.51 8.51 0 001.31 2.11 14.71 14.71 0 003.56 3.24c.17.11.34.19.49.28a3.75 3.75 0 01.4.21 1 1 0 00.39.11.9.9 0 00.6-.28L13 12.52a1 1 0 01.62-.29 1 1 0 01.6.29l2.21 2.22a.81.81 0 010 1.28 5.32 5.32 0 01-.43.49zM9.84 3.87a.52.52 0 01.62-.43 6.07 6.07 0 013.35 1.75 6.48 6.48 0 011.75 3.35.54.54 0 01-.43.62h-.08a.56.56 0 01-.54-.45 5 5 0 00-1.45-2.77 5.18 5.18 0 00-2.77-1.45.51.51 0 01-.45-.62zm8.1 4.69a9.13 9.13 0 00-7.5-7.5.52.52 0 01-.44-.62.52.52 0 01.63-.44 10 10 0 015.5 2.84A10 10 0 0119 8.37a.54.54 0 01-.43.62h-.08a.52.52 0 01-.55-.43z" data-name="Camada 1"/></g></svg>