<svg xmlns="http://www.w3.org/2000/svg" viewBox="0 0 17.5 14"><g data-name="Camada 2"><path d="M17.06 9.62a.46.46 0 01.32.13.41.41 0 01.12.31v.88a.41.41 0 01-.12.31.46.46 0 01-.32.13h-1.31A2.63 2.63 0 0113.12 14a2.63 2.63 0 01-2.62-2.62H7a2.53 2.53 0 01-.77 1.85 2.54 2.54 0 01-1.86.77 2.53 2.53 0 01-1.85-.77 2.53 2.53 0 01-.77-1.85h-.44A1.27 1.27 0 01.38 11a1.27 1.27 0 01-.38-.94V1.31A1.3 1.3 0 011.31 0h8.75a1.27 1.27 0 01.94.38 1.26 1.26 0 01.38.93v1.31h1.21a1.27 1.27 0 01.93.39l2.73 2.73a1.26 1.26 0 01.38.93v2.95zM4.37 12.69a1.24 1.24 0 00.93-.39 1.29 1.29 0 000-1.85 1.24 1.24 0 00-.93-.39 1.23 1.23 0 00-.92.39 1.29 1.29 0 000 1.85 1.23 1.23 0 00.92.39zm8.75 0a1.31 1.31 0 00.93-2.24 1.31 1.31 0 10-1.85 1.85 1.23 1.23 0 00.92.39zM15.31 7v-.33l-2.73-2.73h-1.21V7z" data-name="Camada 1"/></g></svg>