<svg xmlns="http://www.w3.org/2000/svg" viewBox="0 0 17.5 17.5"><g data-name="Camada 2"><path d="M14.88 2.54a9 9 0 011.94 2.83 8.44 8.44 0 01-.51 7.63 8.89 8.89 0 01-3.2 3.16 8.56 8.56 0 01-4.36 1.17 8.49 8.49 0 01-4.14-1.05L0 17.5 1.25 13A8.44 8.44 0 01.08 8.67a8.37 8.37 0 011.17-4.33 8.81 8.81 0 013.16-3.17 8.61 8.61 0 017.64-.51 9.09 9.09 0 012.83 1.88zM8.75 15.9a7.11 7.11 0 003.63-1 7.5 7.5 0 002.68-2.63 7 7 0 001-3.62 6.66 6.66 0 00-.58-2.73 7.69 7.69 0 00-1.62-2.37A7.26 7.26 0 0011.5 2a7.13 7.13 0 00-2.75-.54 7 7 0 00-3.61 1 7.26 7.26 0 00-2.64 2.6 7 7 0 00-1 3.61 6.9 6.9 0 001.16 3.83l.15.27-.74 2.66 2.73-.7.28.15a6.93 6.93 0 003.67 1.02zm3.95-5.43l.11.08c.18.07.29.14.31.19a.81.81 0 010 .39 2 2 0 01-.15.65 1.6 1.6 0 01-.63.66 1.86 1.86 0 01-.84.37 3.69 3.69 0 01-1 0 8.58 8.58 0 01-1.56-.54 9 9 0 01-3.67-3.21L5.2 9a3.88 3.88 0 01-.86-2.22A2.45 2.45 0 015 5a.82.82 0 01.58-.27h.47a.5.5 0 01.26.06.53.53 0 01.25.21l.67 1.6a.47.47 0 010 .39 2.52 2.52 0 01-.51.7.9.9 0 00-.2.26c0 .06 0 .13.08.21A5 5 0 007.93 9.8a9.22 9.22 0 001.64 1c.21.11.36.09.47 0a10.78 10.78 0 00.7-.86.23.23 0 01.2-.15.93.93 0 01.27 0c.21.05.7.29 1.49.68z" data-name="Camada 1"/></g></svg>