<svg class="svg-sprites" id="skin-sprite" xmlns="http://www.w3.org/2000/svg" xmlns:xlink="http://www.w3.org/1999/xlink">
    <symbol viewBox="0 0 19.28 21.5" id="z-cart" xmlns="http://www.w3.org/2000/svg"><g data-name="Camada 2"><path d="M17 4.5h-3.86V3s0-3-2-3h-3s-2 .81-2 2v2.5H2.27L0 21.5h19.28zM8.14 3s.07-1 1-1h1s1-.6 1 1v1.5h-3zM2.28 19.5L4 6.5h2.14V8h2V6.5h3V8h2V6.5h2.13l1.73 13z" data-name="Camada 1"/></g></symbol>
    <symbol viewBox="0 0 11 11" id="z-close" xmlns="http://www.w3.org/2000/svg"><g data-name="Camada 2"><path d="M7.59 5.5l3.13 3.12a.94.94 0 01.28.69 1 1 0 01-.28.72l-.69.69a1 1 0 01-.72.28.94.94 0 01-.69-.28L5.5 7.59l-3.12 3.13a.94.94 0 01-.69.28 1 1 0 01-.69-.28L.28 10A1 1 0 010 9.31a.94.94 0 01.28-.69L3.41 5.5.28 2.38A.94.94 0 010 1.69 1 1 0 01.28 1L1 .28A1 1 0 011.69 0a.94.94 0 01.69.28L5.5 3.41 8.62.28A.94.94 0 019.31 0a1 1 0 01.69.28l.69.69a1 1 0 01.28.72.94.94 0 01-.28.69z" data-name="Camada 1"/></g></symbol>
    <symbol viewBox="0 0 26.25 26.25" id="z-instagram" xmlns="http://www.w3.org/2000/svg"><g data-name="Camada 2"><path d="M13.12 6.39a6.48 6.48 0 013.37.91A6.7 6.7 0 0119 9.76a6.74 6.74 0 010 6.73A6.8 6.8 0 0116.49 19a6.74 6.74 0 01-6.73 0 6.8 6.8 0 01-2.47-2.47 6.74 6.74 0 010-6.73 6.7 6.7 0 012.47-2.5 6.47 6.47 0 013.36-.91zm0 11.13a4.4 4.4 0 004.4-4.39 4.4 4.4 0 00-4.4-4.4 4.4 4.4 0 00-4.39 4.4 4.4 4.4 0 004.39 4.39zm8.62-11.43a1.61 1.61 0 00-1.58-1.58A1.56 1.56 0 0019 5a1.52 1.52 0 00-.47 1.11 1.6 1.6 0 001.59 1.59 1.42 1.42 0 001.08-.47 1.89 1.89 0 00.54-1.14zm4.45 1.59c0 1.09.06 2.91.06 5.45s0 4.36-.09 5.47a10.78 10.78 0 01-.5 2.9 6.84 6.84 0 01-4.16 4.16 10.78 10.78 0 01-2.9.5c-1.11.06-2.94.09-5.48.09s-4.36 0-5.47-.09a9.65 9.65 0 01-2.9-.55 6.23 6.23 0 01-2.55-1.56A6.67 6.67 0 01.59 21.5a10.78 10.78 0 01-.5-2.9C0 17.49 0 15.66 0 13.13s0-4.37.09-5.48a10.78 10.78 0 01.5-2.9A6.84 6.84 0 014.75.59a10.78 10.78 0 012.9-.5C8.76 0 10.59 0 13.12 0s4.37 0 5.48.09a10.78 10.78 0 012.9.5 6.84 6.84 0 014.16 4.16 11.64 11.64 0 01.53 2.93zm-2.81 13.18a12.58 12.58 0 00.47-3.16c0-.86.06-2.07.06-3.64v-1.87c0-1.6 0-2.81-.06-3.64a12 12 0 00-.47-3.16 4.24 4.24 0 00-2.52-2.52 12 12 0 00-3.16-.47c-.86 0-2.08-.06-3.64-.06h-1.87c-1.57 0-2.78 0-3.64.06a12.58 12.58 0 00-3.16.47 4.24 4.24 0 00-2.52 2.52 12 12 0 00-.47 3.16c0 .86-.06 2.08-.06 3.64v1.87c0 1.57 0 2.78.06 3.64a12.58 12.58 0 00.47 3.16 4.46 4.46 0 002.52 2.52 12.58 12.58 0 003.16.47c.86 0 2.07.06 3.64.06h1.87c1.6 0 2.81 0 3.64-.06a12 12 0 003.16-.47 4.46 4.46 0 002.52-2.52z" data-name="Camada 1"/></g></symbol>
    <symbol viewBox="0 0 20 14" id="z-mail" xmlns="http://www.w3.org/2000/svg"><g data-name="Camada 2"><path d="M.62 0h18.81a.6.6 0 01.57.63v12.74a.58.58 0 01-.62.63H.62a.61.61 0 01-.62-.63V.63A.6.6 0 01.62 0zm17.25 12.79l-5.31-4.87-2.13 2a.54.54 0 01-.81 0l-2.13-2-5.31 4.87zM1.18 12l5.41-5-5.41-5zm1-10.81L10 8.64l7.87-7.43zM18.82 2l-5.41 5 5.41 5z" data-name="Camada 1"/></g></symbol>
    <symbol viewBox="0 0 19 19" id="z-phone" xmlns="http://www.w3.org/2000/svg"><g data-name="Camada 2"><path d="M17.24 16.74a1.86 1.86 0 000-2.75L15 11.78a1.82 1.82 0 00-1.36-.62 1.93 1.93 0 00-1.37.62L11 13.06c-.11-.07-.22-.11-.32-.17s-.28-.15-.41-.22a13.36 13.36 0 01-3.3-3A6.87 6.87 0 015.9 7.94L6.84 7l.34-.35a2 2 0 00.64-1.35 2 2 0 00-.64-1.39L6.09 2.8a3.19 3.19 0 01-.36-.38c-.24-.25-.49-.51-.75-.75a1.89 1.89 0 00-1.34-.59 2 2 0 00-1.37.59L.89 3.06A3 3 0 000 4.91a7.46 7.46 0 00.52 3A17.06 17.06 0 003.6 13a19 19 0 006.29 5 9.3 9.3 0 003.53 1h.26A3 3 0 0016 18a8 8 0 01.71-.72 3.71 3.71 0 00.53-.54zM16 16.51a9.81 9.81 0 00-.76.81 1.92 1.92 0 01-1.54.68h-.19a9.54 9.54 0 01-3.16-1 17.77 17.77 0 01-5.92-4.65 16.45 16.45 0 01-2.9-4.81A5.56 5.56 0 011.08 5a1.91 1.91 0 01.55-1.19L3 2.46a.88.88 0 01.62-.29.91.91 0 01.62.29c.25.24.46.47.72.73l.38.38 1.09 1.09a.94.94 0 01.32.64 1 1 0 01-.32.64l-.34.34-1 1a.84.84 0 00-.22.9 8.51 8.51 0 001.31 2.11 14.71 14.71 0 003.56 3.24c.17.11.34.19.49.28a3.75 3.75 0 01.4.21 1 1 0 00.39.11.9.9 0 00.6-.28L13 12.52a1 1 0 01.62-.29 1 1 0 01.6.29l2.21 2.22a.81.81 0 010 1.28 5.32 5.32 0 01-.43.49zM9.84 3.87a.52.52 0 01.62-.43 6.07 6.07 0 013.35 1.75 6.48 6.48 0 011.75 3.35.54.54 0 01-.43.62h-.08a.56.56 0 01-.54-.45 5 5 0 00-1.45-2.77 5.18 5.18 0 00-2.77-1.45.51.51 0 01-.45-.62zm8.1 4.69a9.13 9.13 0 00-7.5-7.5.52.52 0 01-.44-.62.52.52 0 01.63-.44 10 10 0 015.5 2.84A10 10 0 0119 8.37a.54.54 0 01-.43.62h-.08a.52.52 0 01-.55-.43z" data-name="Camada 1"/></g></symbol>
    <symbol viewBox="0 0 14.01 27" id="z-next" xmlns="http://www.w3.org/2000/svg"><g data-name="Camada 2"><path d="M.24 25.59a.83.83 0 000 1.17.8.8 0 001.14 0l12.4-12.67a.85.85 0 000-1.17L1.38.24a.8.8 0 00-1.14 0 .83.83 0 000 1.17L12.06 13.5z" data-name="Camada 1"/></g></symbol>
    <symbol viewBox="0 0 14.01 27" id="z-prev" xmlns="http://www.w3.org/2000/svg"><g data-name="Camada 2"><path d="M13.78 1.41a.85.85 0 000-1.17.81.81 0 00-1.15 0L.24 12.91a.83.83 0 000 1.17l12.39 12.68a.81.81 0 001.15 0 .85.85 0 000-1.17L2 13.5z" data-name="Camada 1"/></g></symbol>
    <symbol viewBox="0 0 20.98 20.98" id="z-search" xmlns="http://www.w3.org/2000/svg"><g data-name="Camada 2"><path d="M8.59 0a8.6 8.6 0 016.59 14.11l5.58 5.58a.76.76 0 01-1.07 1.07l-5.58-5.58A8.59 8.59 0 118.59 0zm0 1.52a7.07 7.07 0 107.07 7.07 7.06 7.06 0 00-7.07-7.07z" data-name="Camada 1"/></g></symbol>
    <symbol viewBox="0 0 23.04 24" id="z-user" xmlns="http://www.w3.org/2000/svg"><g data-name="Camada 2"><path d="M23 23c0-.09-.46-9-11.5-9-3.92 0-6.93 1-9 3.09A8.94 8.94 0 000 23v1h23zM2.12 22A6.92 6.92 0 014 18.5c1.6-1.66 4.14-2.5 7.5-2.5 7 0 8.85 4 9.33 6zm9.38-10A5.77 5.77 0 0017 6a5.77 5.77 0 00-5.5-6A5.77 5.77 0 006 6a5.77 5.77 0 005.5 6zm0-10A3.78 3.78 0 0115 6a3.78 3.78 0 01-3.5 4A3.78 3.78 0 018 6a3.78 3.78 0 013.5-4z" data-name="Camada 1"/></g></symbol>
    <symbol viewBox="0 0 17.5 17.5" id="z-whatsapp" xmlns="http://www.w3.org/2000/svg"><g data-name="Camada 2"><path d="M14.88 2.54a9 9 0 011.94 2.83 8.44 8.44 0 01-.51 7.63 8.89 8.89 0 01-3.2 3.16 8.56 8.56 0 01-4.36 1.17 8.49 8.49 0 01-4.14-1.05L0 17.5 1.25 13A8.44 8.44 0 01.08 8.67a8.37 8.37 0 011.17-4.33 8.81 8.81 0 013.16-3.17 8.61 8.61 0 017.64-.51 9.09 9.09 0 012.83 1.88zM8.75 15.9a7.11 7.11 0 003.63-1 7.5 7.5 0 002.68-2.63 7 7 0 001-3.62 6.66 6.66 0 00-.58-2.73 7.69 7.69 0 00-1.62-2.37A7.26 7.26 0 0011.5 2a7.13 7.13 0 00-2.75-.54 7 7 0 00-3.61 1 7.26 7.26 0 00-2.64 2.6 7 7 0 00-1 3.61 6.9 6.9 0 001.16 3.83l.15.27-.74 2.66 2.73-.7.28.15a6.93 6.93 0 003.67 1.02zm3.95-5.43l.11.08c.18.07.29.14.31.19a.81.81 0 010 .39 2 2 0 01-.15.65 1.6 1.6 0 01-.63.66 1.86 1.86 0 01-.84.37 3.69 3.69 0 01-1 0 8.58 8.58 0 01-1.56-.54 9 9 0 01-3.67-3.21L5.2 9a3.88 3.88 0 01-.86-2.22A2.45 2.45 0 015 5a.82.82 0 01.58-.27h.47a.5.5 0 01.26.06.53.53 0 01.25.21l.67 1.6a.47.47 0 010 .39 2.52 2.52 0 01-.51.7.9.9 0 00-.2.26c0 .06 0 .13.08.21A5 5 0 007.93 9.8a9.22 9.22 0 001.64 1c.21.11.36.09.47 0a10.78 10.78 0 00.7-.86.23.23 0 01.2-.15.93.93 0 01.27 0c.21.05.7.29 1.49.68z" data-name="Camada 1"/></g></symbol>
    <symbol viewBox="0 0 20.79 21.56" id="z-wish" xmlns="http://www.w3.org/2000/svg"><g data-name="Camada 2"><path d="M10.44 21.56s1.38-4-7-9 .53-13.78 6-8c0 0 4.39-8.76 10-2s-8.03 16.76-9 19z" fill-rule="evenodd" data-name="Camada 1"/></g></symbol>
</svg>